<svg xmlns="http://www.w3.org/2000/svg" viewBox="0 0 590 200" role="img" aria-label="PT. Segi Tiga Tambora — Konstruksi">
<title>PT. Segi Tiga Tambora — Konstruksi</title>
<polygon points="100.00,12.00 12.00,176.00 100.00,176.00" fill="#0f2a47"/>
<polygon points="100.00,12.00 188.00,176.00 100.00,176.00" fill="#f28c28"/>
<rect x="26.00" y="157.91" width="14.00" height="18.09" fill="#fff"/>
<rect x="29.00" y="165.91" width="8.00" height="2.20" fill="#0f2a47"/>
<rect x="44.00" y="124.36" width="14.00" height="51.64" fill="#fff"/>
<rect x="47.00" y="132.36" width="8.00" height="2.20" fill="#0f2a47"/>
<rect x="47.00" y="141.36" width="8.00" height="2.20" fill="#0f2a47"/>
<rect x="47.00" y="150.36" width="8.00" height="2.20" fill="#0f2a47"/>
<rect x="47.00" y="159.36" width="8.00" height="2.20" fill="#0f2a47"/>
<rect x="47.00" y="168.36" width="8.00" height="2.20" fill="#0f2a47"/>
<rect x="62.00" y="90.82" width="14.00" height="85.18" fill="#fff"/>
<rect x="65.00" y="98.82" width="8.00" height="2.20" fill="#0f2a47"/>
<rect x="65.00" y="107.82" width="8.00" height="2.20" fill="#0f2a47"/>
<rect x="65.00" y="116.82" width="8.00" height="2.20" fill="#0f2a47"/>
<rect x="65.00" y="125.82" width="8.00" height="2.20" fill="#0f2a47"/>
<rect x="65.00" y="134.82" width="8.00" height="2.20" fill="#0f2a47"/>
<rect x="65.00" y="143.82" width="8.00" height="2.20" fill="#0f2a47"/>
<rect x="65.00" y="152.82" width="8.00" height="2.20" fill="#0f2a47"/>
<rect x="65.00" y="161.82" width="8.00" height="2.20" fill="#0f2a47"/>
<polygon points="78.00,176.00 122.00,176.00 100.00,12.00" fill="#fff"/>
<polygon points="96.86,150.00 103.14,150.00 103.64,172.00 96.36,172.00" fill="#f28c28"/>
<polygon points="97.64,116.00 102.36,116.00 102.82,136.00 97.18,136.00" fill="#f28c28"/>
<polygon points="98.27,88.00 101.73,88.00 102.05,102.00 97.95,102.00" fill="#f28c28"/>
<polygon points="98.77,66.00 101.23,66.00 101.45,76.00 98.55,76.00" fill="#f28c28"/>
<polygon points="99.14,50.00 100.86,50.00 101.05,58.00 98.95,58.00" fill="#f28c28"/>
<path d="M252.22 60.1Q246.72 60.1 241.63 58.72Q236.54 57.34 233.34 55.17L237.5 45.82Q240.51 47.74 244.45 48.99Q248.38 50.24 252.29 50.24Q254.91 50.24 256.51 49.76Q258.11 49.28 258.85 48.48Q259.58 47.68 259.58 46.59Q259.58 45.06 258.18 44.16Q256.77 43.26 254.53 42.69Q252.29 42.11 249.57 41.54Q246.85 40.96 244.13 40.06Q241.41 39.17 239.17 37.73Q236.93 36.29 235.52 33.95Q234.11 31.62 234.11 28.03Q234.11 24 236.32 20.74Q238.53 17.47 242.94 15.49Q247.36 13.5 253.95 13.5Q258.37 13.5 262.62 14.5Q266.88 15.49 270.21 17.41L266.3 26.82Q263.1 25.09 259.97 24.22Q256.83 23.36 253.89 23.36Q251.26 23.36 249.66 23.9Q248.06 24.45 247.36 25.34Q246.66 26.24 246.66 27.39Q246.66 28.86 248.03 29.73Q249.41 30.59 251.68 31.14Q253.95 31.68 256.67 32.26Q259.39 32.83 262.11 33.7Q264.83 34.56 267.07 36Q269.31 37.44 270.69 39.78Q272.06 42.11 272.06 45.63Q272.06 49.54 269.86 52.83Q267.65 56.13 263.26 58.11Q258.88 60.1 252.22 60.1ZM280.13 59.2V14.4H315.26V24.19H292.67V31.74H312.58V41.22H292.67V49.41H316.1V59.2ZM347.78 60.1Q342.46 60.1 337.92 58.4Q333.38 56.7 330.08 53.57Q326.78 50.43 324.93 46.18Q323.07 41.92 323.07 36.8Q323.07 31.68 324.93 27.42Q326.78 23.17 330.11 20.03Q333.44 16.9 338.02 15.2Q342.59 13.5 348.03 13.5Q354.37 13.5 359.36 15.62Q364.35 17.73 367.62 21.7L359.55 28.99Q357.25 26.5 354.59 25.25Q351.94 24 348.67 24Q345.79 24 343.42 24.9Q341.06 25.79 339.39 27.49Q337.73 29.18 336.8 31.52Q335.87 33.86 335.87 36.8Q335.87 39.62 336.8 41.98Q337.73 44.35 339.39 46.05Q341.06 47.74 343.39 48.67Q345.73 49.6 348.54 49.6Q351.36 49.6 354.05 48.64Q354.69 48.45 355.39 48.13V35.84H366.59V54.4Q362.75 57.15 357.7 58.62Q352.64 60.1 347.78 60.1ZM376.9 59.2V14.4H389.57V59.2ZM431.23 59.2V24.45H417.47V14.4H457.6V24.45H443.9V59.2ZM464.58 59.2V14.4H477.25V59.2ZM510.91 60.1Q505.6 60.1 501.06 58.4Q496.51 56.7 493.22 53.57Q489.92 50.43 488.06 46.18Q486.21 41.92 486.21 36.8Q486.21 31.68 488.06 27.42Q489.92 23.17 493.25 20.03Q496.58 16.9 501.15 15.2Q505.73 13.5 511.17 13.5Q517.5 13.5 522.5 15.62Q527.49 17.73 530.75 21.7L522.69 28.99Q520.38 26.5 517.73 25.25Q515.07 24 511.81 24Q508.93 24 506.56 24.9Q504.19 25.79 502.53 27.49Q500.86 29.18 499.94 31.52Q499.01 33.86 499.01 36.8Q499.01 39.62 499.94 41.98Q500.86 44.35 502.53 46.05Q504.19 47.74 506.53 48.67Q508.86 49.6 511.68 49.6Q514.5 49.6 517.18 48.64Q517.82 48.45 518.53 48.13V35.84H529.73V54.4Q525.89 57.15 520.83 58.62Q515.78 60.1 510.91 60.1ZM534.66 59.2 554.43 14.4H566.91L586.75 59.2H573.57L570.05 50.5H551.1L547.58 59.2ZM566.34 41.15 560.58 26.82 554.82 41.15Z" fill="#0f2a47"/>
<path d="M246.02 124V89.25H232.26V79.2H272.38V89.25H258.69V124ZM269.48 124 289.26 79.2H301.74L321.58 124H308.39L304.87 115.3H285.93L282.41 124ZM301.16 105.95 295.4 91.62 289.64 105.95ZM325.78 124V79.2H336.21L351.96 105.06L367.32 79.2H377.75L377.88 124H366.23L366.1 100.26L354.58 119.58H348.95L337.49 100.9V124ZM387.46 124V79.2H410.37Q419.2 79.2 423.55 82.43Q427.9 85.66 427.9 90.91Q427.9 94.37 426.11 96.93Q424.51 99.17 421.82 100.64Q422.27 100.77 422.66 100.9Q426.18 102.37 428.13 105.09Q430.08 107.81 430.08 111.71Q430.08 117.54 425.38 120.77Q420.67 124 411.65 124ZM400 114.85H410.62Q413.89 114.85 415.58 113.73Q417.28 112.61 417.28 110.3Q417.28 108 415.58 106.88Q413.89 105.76 410.62 105.76H400ZM400 96.99H408.7Q411.9 96.99 413.5 95.9Q415.1 94.82 415.1 92.64Q415.1 90.46 413.5 89.41Q411.9 88.35 408.7 88.35H400ZM459.88 124.9Q454.51 124.9 449.96 123.17Q445.42 121.44 442.06 118.27Q438.7 115.1 436.84 110.88Q434.99 106.66 434.99 101.6Q434.99 96.54 436.84 92.32Q438.7 88.1 442.06 84.93Q445.42 81.76 449.96 80.03Q454.51 78.3 459.88 78.3Q465.32 78.3 469.83 80.03Q474.35 81.76 477.67 84.93Q481 88.1 482.89 92.32Q484.78 96.54 484.78 101.6Q484.78 106.66 482.89 110.91Q481 115.17 477.67 118.3Q474.35 121.44 469.83 123.17Q465.32 124.9 459.88 124.9ZM459.88 114.4Q462.44 114.4 464.65 113.5Q466.86 112.61 468.49 110.91Q470.12 109.22 471.05 106.85Q471.98 104.48 471.98 101.6Q471.98 98.66 471.05 96.32Q470.12 93.98 468.49 92.29Q466.86 90.59 464.65 89.7Q462.44 88.8 459.88 88.8Q457.32 88.8 455.11 89.7Q452.91 90.59 451.27 92.29Q449.64 93.98 448.71 96.32Q447.79 98.66 447.79 101.6Q447.79 104.48 448.71 106.85Q449.64 109.22 451.27 110.91Q452.91 112.61 455.11 113.5Q457.32 114.4 459.88 114.4ZM492.05 124V79.2H512.09Q521.88 79.2 527.16 83.65Q532.44 88.1 532.44 95.78Q532.44 100.83 530.01 104.48Q527.7 108 523.67 109.92L533.33 124H519.77L511.64 112.1H504.73V124ZM504.73 102.3H511.77Q515.73 102.3 517.69 100.58Q519.64 98.85 519.64 95.78Q519.64 92.64 517.69 90.91Q515.73 89.18 511.77 89.18H504.73ZM534.66 124 554.43 79.2H566.91L586.75 124H573.57L570.05 115.3H551.1L547.58 124ZM566.34 105.95 560.58 91.62 554.82 105.95Z" fill="#0f2a47"/>
<rect x="232" y="150.0" width="353.9" height="2" fill="#f28c28"/>
<path d="M234.32 189.6V170H238.83V179.16L247.51 170H252.55L244.43 178.74L253.03 189.6H247.74L241.46 181.9L238.83 184.64V189.6ZM276.32 189.94Q274 189.94 272.03 189.18Q270.05 188.42 268.61 187.05Q267.17 185.68 266.37 183.83Q265.57 181.98 265.57 179.8Q265.57 177.62 266.37 175.77Q267.17 173.92 268.62 172.55Q270.08 171.18 272.04 170.42Q274 169.66 276.3 169.66Q278.62 169.66 280.57 170.42Q282.51 171.18 283.95 172.55Q285.4 173.92 286.21 175.75Q287.02 177.59 287.02 179.8Q287.02 181.98 286.21 183.85Q285.4 185.71 283.95 187.07Q282.51 188.42 280.57 189.18Q278.62 189.94 276.32 189.94ZM276.3 186.07Q277.61 186.07 278.72 185.62Q279.82 185.18 280.66 184.34Q281.5 183.5 281.97 182.35Q282.43 181.2 282.43 179.8Q282.43 178.4 281.97 177.25Q281.5 176.1 280.68 175.26Q279.85 174.42 278.73 173.98Q277.61 173.53 276.3 173.53Q274.98 173.53 273.87 173.98Q272.77 174.42 271.93 175.26Q271.09 176.1 270.63 177.25Q270.16 178.4 270.16 179.8Q270.16 181.17 270.63 182.33Q271.09 183.5 271.91 184.34Q272.74 185.18 273.86 185.62Q274.98 186.07 276.3 186.07ZM302.2 189.6V170H305.95L315.69 181.9V170H320.17V189.6H316.45L306.68 177.7V189.6ZM343.02 189.94Q340.67 189.94 338.51 189.31Q336.36 188.68 335.04 187.67L336.58 184.25Q337.84 185.15 339.56 185.72Q341.28 186.3 343.05 186.3Q344.39 186.3 345.22 186.03Q346.04 185.76 346.44 185.29Q346.83 184.81 346.83 184.2Q346.83 183.41 346.21 182.95Q345.6 182.49 344.59 182.19Q343.58 181.9 342.36 181.63Q341.14 181.37 339.93 180.98Q338.71 180.58 337.7 179.97Q336.69 179.35 336.06 178.34Q335.43 177.34 335.43 175.77Q335.43 174.09 336.34 172.7Q337.25 171.32 339.09 170.49Q340.92 169.66 343.69 169.66Q345.54 169.66 347.33 170.1Q349.12 170.53 350.5 171.4L349.1 174.84Q347.72 174.06 346.35 173.68Q344.98 173.3 343.66 173.3Q342.35 173.3 341.51 173.61Q340.67 173.92 340.3 174.41Q339.94 174.9 339.94 175.54Q339.94 176.3 340.56 176.76Q341.17 177.22 342.18 177.5Q343.19 177.78 344.41 178.06Q345.62 178.34 346.84 178.71Q348.06 179.07 349.07 179.69Q350.08 180.3 350.71 181.31Q351.34 182.32 351.34 183.86Q351.34 185.51 350.41 186.88Q349.49 188.26 347.65 189.1Q345.82 189.94 343.02 189.94ZM370.26 189.6V173.7H363.99V170H381.07V173.7H374.8V189.6ZM395.27 189.6V170H403.64Q407.73 170 410 171.89Q412.26 173.78 412.26 177.11Q412.26 179.3 411.23 180.88Q410.19 182.46 408.29 183.3Q408.26 183.3 408.26 183.33L412.63 189.6H407.73L403.98 184.14Q403.86 184.14 403.75 184.14H399.8V189.6ZM399.8 180.53H403.5Q405.6 180.53 406.64 179.62Q407.67 178.71 407.67 177.11Q407.67 175.49 406.64 174.59Q405.6 173.7 403.5 173.7H399.8ZM436.32 189.94Q432.14 189.94 429.79 187.61Q427.44 185.29 427.44 180.98V170H431.98V180.81Q431.98 183.61 433.12 184.84Q434.27 186.07 436.34 186.07Q438.42 186.07 439.56 184.84Q440.71 183.61 440.71 180.81V170H445.19V180.98Q445.19 185.29 442.84 187.61Q440.49 189.94 436.32 189.94ZM461.43 189.6V170H465.94V179.16L474.62 170H479.66L471.54 178.74L480.14 189.6H474.84L468.57 181.9L465.94 184.64V189.6ZM500.35 189.94Q498 189.94 495.84 189.31Q493.69 188.68 492.37 187.67L493.91 184.25Q495.17 185.15 496.89 185.72Q498.62 186.3 500.38 186.3Q501.72 186.3 502.55 186.03Q503.38 185.76 503.77 185.29Q504.16 184.81 504.16 184.2Q504.16 183.41 503.54 182.95Q502.93 182.49 501.92 182.19Q500.91 181.9 499.69 181.63Q498.48 181.37 497.26 180.98Q496.04 180.58 495.03 179.97Q494.02 179.35 493.39 178.34Q492.76 177.34 492.76 175.77Q492.76 174.09 493.67 172.7Q494.58 171.32 496.42 170.49Q498.25 169.66 501.02 169.66Q502.87 169.66 504.66 170.1Q506.46 170.53 507.83 171.4L506.43 174.84Q505.06 174.06 503.68 173.68Q502.31 173.3 501 173.3Q499.68 173.3 498.84 173.61Q498 173.92 497.64 174.41Q497.27 174.9 497.27 175.54Q497.27 176.3 497.89 176.76Q498.5 177.22 499.51 177.5Q500.52 177.78 501.74 178.06Q502.96 178.34 504.17 178.71Q505.39 179.07 506.4 179.69Q507.41 180.3 508.04 181.31Q508.67 182.32 508.67 183.86Q508.67 185.51 507.74 186.88Q506.82 188.26 504.99 189.1Q503.15 189.94 500.35 189.94ZM523.54 189.6V170H528.07V189.6Z" fill="#f28c28"/>
</svg>
